Coordinates
version=1
nRows=10
nColumns=40
inDegrees=yes

Units are S.I. units (second, meters, Newtons, ...)
If the header above contains a line with 'inDegrees', this indicates whether rotational values are in degrees (yes) or radians (no).

endheader
time	pelvis_tilt	pelvis_list	pelvis_rotation	pelvis_tx	pelvis_ty	pelvis_tz	hip_flexion_r	hip_adduction_r	hip_rotation_r	knee_angle_r	knee_angle_r_beta	ankle_angle_r	subtalar_angle_r	mtp_angle_r	hip_flexion_l	hip_adduction_l	hip_rotation_l	knee_angle_l	knee_angle_l_beta	ankle_angle_l	subtalar_angle_l	mtp_angle_l	lumbar_extension	lumbar_bending	lumbar_rotation	arm_flex_r	arm_add_r	arm_rot_r	elbow_flex_r	pro_sup_r	wrist_flex_r	wrist_dev_r	arm_flex_l	arm_add_l	arm_rot_l	elbow_flex_l	pro_sup_l	wrist_flex_l	wrist_dev_l
      0.54000000	     -3.51670063	     -2.69636584	     -5.14243901	     -0.51328640	      0.97861182	      0.27472096	     -6.96297732	      3.55015001	     -2.58020303	     14.02882618	      0.24484921	      7.98663670	      0.00000000	      0.00000000	     26.30375073	     -6.81908771	    -12.58763382	      4.56192932	      0.07962069	    -10.57541490	      0.00000000	      0.00000000	    -10.19229401	     -0.06397899	      7.62827506	     -0.16189067	     -5.03832464	     -9.31778998	     63.97630488	     87.76812530	     24.57617874	     26.49452997	    -15.10018252	     -2.09612324	    -24.20338633	     54.70076226	     89.40968883	     26.61100049	     32.45414041
      0.55000000	     -3.37695067	     -2.46979191	     -5.37845416	     -0.50063843	      0.97784230	      0.27355584	     -7.36135245	      3.03078481	     -2.43059715	     15.08316026	      0.26325081	      8.07863493	      0.00000000	      0.00000000	     26.05886970	     -6.52732365	    -12.19487524	      4.40887042	      0.07694931	    -10.82603494	      0.00000000	      0.00000000	    -10.27380762	     -0.44695051	      7.73088842	      0.10980522	     -5.07425491	     -9.16005534	     64.20245101	     87.73791075	     24.52787706	     26.43099217	    -15.37797060	     -2.03825217	    -24.49196923	     54.54110810	     89.40021191	     26.66658132	     32.52713581
      0.56000000	     -3.09218614	     -2.12497366	     -5.60232238	     -0.48760282	      0.97745241	      0.27245966	     -7.91442458	      2.36983285	     -2.18526121	     16.10827930	      0.28114251	      7.71572334	      0.00000000	      0.00000000	     25.70623648	     -6.15539727	    -12.30467936	      4.77527577	      0.08334428	    -10.87958939	      0.00000000	      0.00000000	    -10.45052843	     -0.98723851	      7.67196389	      0.40081483	     -5.01522901	     -8.90845827	     64.32825142	     87.72107926	     24.39420334	     26.25079381	    -15.70779710	     -2.02776927	    -24.79917385	     54.38410507	     89.40022038	     26.91580064	     32.62109356
      0.57000000	     -2.96777680	     -1.92839726	     -5.61704866	     -0.47437615	      0.97701330	      0.27093761	     -8.29979224	      1.89615505	     -2.04780826	     17.13587051	      0.29907736	      7.01611717	      0.00000000	      0.00000000	     25.59831773	     -5.87743341	    -12.12736083	      5.54823523	      0.09683497	    -10.96471959	      0.00000000	      0.00000000	    -10.42926973	     -1.27099955	      7.59074623	      0.46485525	     -4.97506763	     -8.89793238	     64.56441391	     87.70594245	     24.39077850	     26.19331954	    -15.91401146	     -2.04548500	    -24.83082895	     54.07592276	     89.41348028	     26.93295257	     32.66640571
      0.58000000	     -2.75346038	     -1.56404594	     -5.73500487	     -0.46066524	      0.97680026	      0.26957408	     -8.67038617	      1.18612319	     -2.18256630	     18.38701140	      0.32091389	      6.24220322	      0.00000000	      0.00000000	     25.38250262	     -5.51153114	    -12.68399365	      6.67351342	      0.11647478	    -10.92278528	      0.00000000	      0.00000000	    -10.45102385	     -1.78606389	      7.56212698	      0.42411987	     -4.86294338	     -8.90547066	     64.81703046	     87.69358644	     24.36657879	     26.03620773	    -16.18413680	     -2.10644734	    -24.84013013	     53.92333340	     89.40481537	     27.03883903	     32.72398781
      0.59000000	     -2.53853043	     -1.22738943	     -5.81415279	     -0.44675423	      0.97679403	      0.26814961	     -9.00226242	      0.51310124	     -2.20006495	     19.68158468	      0.34350845	      5.13096116	      0.00000000	      0.00000000	     25.13536111	     -5.17902345	    -13.13572891	      7.93508705	      0.13849340	    -11.06343483	      0.00000000	      0.00000000	    -10.44723513	     -2.25942522	      7.50467172	      0.31445626	     -4.73928323	     -8.93668192	     65.03037164	     87.68557071	     24.34482846	     25.85816540	    -16.41402015	     -2.17668049	    -24.81852999	     53.72975518	     89.40720990	     27.15503097	     32.78144130
      0.60000000	     -2.32095823	     -0.95508146	     -5.78072392	     -0.43279732	      0.97697944	      0.26657990	     -9.26702217	     -0.06511952	     -2.16119310	     21.08321690	      0.36797155	      3.76363407	      0.00000000	      0.00000000	     24.87333758	     -4.87379083	    -13.23214011	      9.28065963	      0.16197807	    -11.36019447	      0.00000000	      0.00000000	    -10.44580394	     -2.64288547	      7.34295950	      0.16516574	     -4.59557358	     -8.96615785	     65.20461675	     87.66682224	     24.33766080	     25.75999827	    -16.57548754	     -2.24236087	    -24.78101416	     53.49482375	     89.41635408	     27.20220307	     32.82240748
      0.61000000	     -2.11964987	     -0.62557062	     -5.81335524	     -0.41839041	      0.97721588	      0.26507140	     -9.38958046	     -0.77486222	     -2.49993640	     22.70133001	      0.39621295	      2.03130513	      0.00000000	      0.00000000	     24.57936046	     -4.56808165	    -13.89589174	     10.72263006	      0.18714520	    -11.50725241	      0.00000000	      0.00000000	    -10.36739135	     -3.09311112	      7.23893023	     -0.12715369	     -4.41726357	     -9.04340486	     65.42928416	     87.65224769	     24.31800535	     25.55585642	    -16.82177703	     -2.32833160	    -24.68905040	     53.44189593	     89.40699291	     27.32759328	     32.86958331
      0.62000000	     -1.86393903	     -0.32791625	     -5.77892181	     -0.40421474	      0.97776366	      0.26337012	     -9.46166095	     -1.41184949	     -2.52449726	     24.44037785	      0.42656506	      0.27053725	      0.00000000	      0.00000000	     24.20750222	     -4.23293204	    -13.89773747	     12.12398403	      0.21160344	    -11.78904011	      0.00000000	      0.00000000	    -10.38107822	     -3.48143223	      7.05245869	     -0.36601142	     -4.23881401	     -9.10610633	     65.52338176	     87.63105933	     24.30376102	     25.43958122	    -16.91649382	     -2.38823642	    -24.61754626	     53.24254081	     89.40401795	     27.38780815	     32.90729988
      0.63000000	     -1.65674535	     -0.03652907	     -5.76979852	     -0.38990964	      0.97832993	      0.26179267	     -9.30892975	     -2.09515394	     -2.87407852	     26.44467014	      0.46154656	     -1.89594176	      0.00000000	      0.00000000	     23.81695073	     -3.93085031	    -14.14926997	     13.45012030	      0.23474888	    -11.92486540	      0.00000000	      0.00000000	    -10.35960346	     -3.88766184	      6.85741678	     -0.68642592	     -4.02118877	     -9.18281256	     65.70672462	     87.60546115	     24.28519385	     25.27421787	    -17.05829975	     -2.47602857	    -24.51109296	     53.20120198	     89.41675692	     27.48393223	     32.94484006
